<?xml version="1.0" encoding="UTF-8"?>
<svg viewBox="0 0 520 180" xmlns="http://www.w3.org/2000/svg" 
    style="max-width: 520px; width: 100%; font-family: 'Computer Modern', Georgia, serif;">

<!-- Arrowhead markers (must be defined before use) -->
<defs>
    <marker id="arrowBlue" markerWidth="8" markerHeight="6" refX="7" refY="3" orient="auto">
    <polygon points="0 0, 8 3, 0 6" fill="#4A90D9"/>
    </marker>
    <marker id="arrowRed" markerWidth="8" markerHeight="6" refX="7" refY="3" orient="auto">
    <polygon points="0 0, 8 3, 0 6" fill="#4A90D9"/>
    </marker>
    <marker id="arrowGreen" markerWidth="8" markerHeight="6" refX="7" refY="3" orient="auto">
    <polygon points="0 0, 8 3, 0 6" fill="#4A90D9"/>
    </marker>
</defs>

<!-- Nodes -->
<circle cx="60"  cy="90" r="22" fill="white" stroke="#333" stroke-width="2"/>
<text x="60"  y="96" text-anchor="middle" font-size="16" fill="#333">0</text>

<circle cx="200" cy="90" r="22" fill="white" stroke="#333" stroke-width="2"/>
<text x="200" y="96" text-anchor="middle" font-size="16" fill="#333">1</text>

<circle cx="340" cy="90" r="22" fill="white" stroke="#333" stroke-width="2"/>
<text x="340" y="96" text-anchor="middle" font-size="16" fill="#333">2</text>

<circle cx="460" cy="90" r="22" fill="white" stroke="#333" stroke-width="2"/>
<text x="460" y="96" text-anchor="middle" font-size="16" fill="#333">3</text>

<!-- Character labels below nodes -->
<text x="130" y="140" text-anchor="middle" font-size="16" fill="#888">h</text>
<text x="270" y="140" text-anchor="middle" font-size="16" fill="#888">a</text>
<text x="400" y="140" text-anchor="middle" font-size="16" fill="#888">t</text>

<!-- Straight edges (single-character pieces) -->
<!-- h: 0→1 -->
<line x1="82" y1="90" x2="178" y2="90" stroke="#4A90D9" stroke-width="2" marker-end="url(#arrowBlue)"/>
<text x="130" y="80" text-anchor="middle" font-size="14" font-weight="bold" fill="#4A90D9">h</text>

<!-- a: 1→2 -->
<line x1="222" y1="90" x2="318" y2="90" stroke="#4A90D9" stroke-width="2" marker-end="url(#arrowBlue)"/>
<text x="270" y="80" text-anchor="middle" font-size="14" font-weight="bold" fill="#4A90D9">a</text>

<!-- t: 2→3 -->
<line x1="362" y1="90" x2="438" y2="90" stroke="#4A90D9" stroke-width="2" marker-end="url(#arrowBlue)"/>
<text x="400" y="80" text-anchor="middle" font-size="14" font-weight="bold" fill="#4A90D9">t</text>

<!-- Arc edges (multi-character pieces) -->
<!-- ha: 0→2 -->
<path d="M 80,78 Q 210,15 320,78" fill="none" stroke="#4A90D9" stroke-width="2" marker-end="url(#arrowRed)"/>
<text x="200" y="38" text-anchor="middle" font-size="14" font-weight="bold" fill="#4A90D9">ha</text>

<!-- at: 1→3 -->
<path d="M 220,78 Q 340,15 442,78" fill="none" stroke="#4A90D9" stroke-width="2" marker-end="url(#arrowGreen)"/>
<text x="335" y="38" text-anchor="middle" font-size="14" font-weight="bold" fill="#4A90D9">at</text>

</svg>
